<svg width="1099" height="171" viewBox="0 0 1099 171" fill="none" xmlns="http://www.w3.org/2000/svg">
<path d="M38.976 45.358C38.976 48.1493 38.2123 50.7827 36.685 53.258C35.2103 55.7333 33.0247 57.7347 30.128 59.262C27.2313 60.7893 23.8343 61.553 19.937 61.553C14.3017 61.553 9.69333 60.21 6.112 57.524C2.53067 54.838 0.74 51.125 0.74 46.385H10.378C10.5887 48.8077 11.484 50.73 13.064 52.152C14.644 53.574 16.935 54.285 19.937 54.285C23.0443 54.285 25.467 53.495 27.205 51.915C28.9957 50.335 29.891 48.3073 29.891 45.832C29.891 43.8833 29.338 42.356 28.232 41.25C27.1787 40.0913 25.8357 39.2223 24.203 38.643C22.5703 38.011 20.332 37.3527 17.488 36.668C13.9067 35.8253 11.01 34.9563 8.798 34.061C6.586 33.113 4.69 31.6383 3.11 29.637C1.53 27.583 0.74 24.818 0.74 21.342C0.74 18.182 1.53 15.3907 3.11 12.968C4.69 10.5453 6.902 8.67566 9.746 7.359C12.59 6.04233 15.8553 5.384 19.542 5.384C24.914 5.384 29.2327 6.648 32.498 9.176C35.816 11.704 37.6593 15.3643 38.028 20.157H28.074C27.8633 18.0503 26.968 16.286 25.388 14.864C23.808 13.442 21.7013 12.731 19.068 12.731C16.3293 12.731 14.1173 13.4157 12.432 14.785C10.7467 16.1543 9.904 18.182 9.904 20.868C9.904 22.8167 10.4307 24.3967 11.484 25.608C12.59 26.7667 13.9593 27.662 15.592 28.294C17.2247 28.8733 19.4893 29.5053 22.386 30.19C25.9147 31.0327 28.785 31.928 30.997 32.876C33.209 33.7713 35.0787 35.2197 36.606 37.221C38.186 39.1697 38.976 41.882 38.976 45.358ZM67.3787 16.76C71.5394 16.76 75.3051 17.6817 78.6757 19.525C82.0464 21.3683 84.7061 24.0017 86.6547 27.425C88.6034 30.8483 89.5777 34.772 89.5777 39.196C89.5777 43.62 88.5771 47.5437 86.5757 50.967C84.5744 54.3903 81.8357 57.05 78.3597 58.946C74.9364 60.7893 71.1444 61.711 66.9837 61.711C62.8757 61.711 59.1627 60.7893 55.8447 58.946C52.5267 57.05 49.9197 54.4167 48.0237 51.046C46.1277 47.6227 45.1797 43.6727 45.1797 39.196C45.1797 34.772 46.1541 30.8483 48.1027 27.425C50.0514 24.0017 52.7111 21.3683 56.0817 19.525C59.4524 17.6817 63.2181 16.76 67.3787 16.76ZM67.2207 24.344C64.9034 24.344 62.7704 24.9233 60.8217 26.082C58.8731 27.188 57.2931 28.8733 56.0817 31.138C54.9231 33.35 54.3437 36.036 54.3437 39.196C54.3437 42.356 54.8967 45.0683 56.0027 47.333C57.1614 49.5977 58.6887 51.3093 60.5847 52.468C62.5334 53.574 64.6664 54.127 66.9837 54.127C69.3011 54.127 71.4604 53.5477 73.4617 52.389C75.5157 51.2303 77.1747 49.545 78.4387 47.333C79.7027 45.0683 80.3347 42.356 80.3347 39.196C80.3347 36.036 79.7291 33.35 78.5177 31.138C77.3064 28.8733 75.7001 27.188 73.6987 26.082C71.6974 24.9233 69.5381 24.344 67.2207 24.344ZM105.987 2.54V61H96.9807V2.54H105.987ZM133.138 52.942L145.462 17.471H155.179L138.589 61H127.687L111.176 17.471H120.814L133.138 52.942ZM159.143 5.937C159.143 4.30433 159.696 2.935 160.802 1.829C161.908 0.722998 163.278 0.169997 164.91 0.169997C166.49 0.169997 167.833 0.722998 168.939 1.829C170.045 2.935 170.598 4.30433 170.598 5.937C170.598 7.56967 170.045 8.939 168.939 10.045C167.833 11.151 166.49 11.704 164.91 11.704C163.278 11.704 161.908 11.151 160.802 10.045C159.696 8.939 159.143 7.56967 159.143 5.937ZM169.334 17.471V61H160.328V17.471H169.334ZM202.568 16.76C205.728 16.76 208.572 17.471 211.1 18.893C213.681 20.315 215.709 22.4217 217.183 25.213C218.711 28.0043 219.474 31.375 219.474 35.325V61H210.547V36.668C210.547 32.7707 209.573 29.795 207.624 27.741C205.676 25.6343 203.016 24.581 199.645 24.581C196.275 24.581 193.589 25.6343 191.587 27.741C189.639 29.795 188.664 32.7707 188.664 36.668V61H179.658V17.471H188.664V24.344C190.086 21.8687 191.982 19.999 194.352 18.735C196.775 17.4183 199.514 16.76 202.568 16.76ZM247 16.76C250.423 16.76 253.425 17.55 256.006 19.13C258.639 20.6573 260.667 22.685 262.089 25.213V17.471H271.174V61.711C271.174 65.7137 270.331 69.2687 268.646 72.376C266.961 75.536 264.512 78.0113 261.299 79.802C258.139 81.5927 254.347 82.488 249.923 82.488C244.024 82.488 239.126 81.0923 235.229 78.301C231.332 75.5623 229.12 71.823 228.593 67.083H237.52C238.205 69.3477 239.653 71.1647 241.865 72.534C244.13 73.956 246.816 74.667 249.923 74.667C253.557 74.667 256.48 73.561 258.692 71.349C260.957 69.137 262.089 65.9243 262.089 61.711V52.863C260.614 55.549 258.587 57.7083 256.006 59.341C253.425 60.921 250.423 61.711 247 61.711C243.208 61.711 239.732 60.763 236.572 58.867C233.465 56.9183 230.989 54.2323 229.146 50.809C227.355 47.333 226.46 43.4093 226.46 39.038C226.46 34.6667 227.355 30.7957 229.146 27.425C230.989 24.0543 233.465 21.4473 236.572 19.604C239.732 17.708 243.208 16.76 247 16.76ZM248.896 24.581C246.579 24.581 244.419 25.1603 242.418 26.319C240.417 27.425 238.784 29.084 237.52 31.296C236.309 33.4553 235.703 36.036 235.703 39.038C235.703 42.04 236.309 44.6733 237.52 46.938C238.784 49.2027 240.417 50.9407 242.418 52.152C244.472 53.3107 246.631 53.89 248.896 53.89C251.213 53.89 253.373 53.3107 255.374 52.152C257.375 50.9933 258.982 49.308 260.193 47.096C261.457 44.8313 262.089 42.198 262.089 39.196C262.089 36.194 261.457 33.587 260.193 31.375C258.982 29.163 257.375 27.4777 255.374 26.319C253.373 25.1603 251.213 24.581 248.896 24.581ZM314.195 24.818V48.913C314.195 50.5457 314.563 51.7307 315.301 52.468C316.091 53.1527 317.407 53.495 319.251 53.495H324.781V61H317.671C313.615 61 310.508 60.052 308.349 58.156C306.189 56.26 305.11 53.179 305.11 48.913V24.818H299.975V17.471H305.11V6.648H314.195V17.471H324.781V24.818H314.195ZM354.491 16.76C357.651 16.76 360.495 17.471 363.023 18.893C365.604 20.315 367.632 22.4217 369.106 25.213C370.634 28.0043 371.397 31.375 371.397 35.325V61H362.47V36.668C362.47 32.7707 361.496 29.795 359.547 27.741C357.599 25.6343 354.939 24.581 351.568 24.581C348.198 24.581 345.512 25.6343 343.51 27.741C341.562 29.795 340.587 32.7707 340.587 36.668V61H331.581V2.54H340.587V24.344C342.009 21.8687 343.905 19.999 346.275 18.735C348.698 17.4183 351.437 16.76 354.491 16.76ZM421.28 38.011C421.28 39.5383 421.175 40.9603 420.964 42.277H387.626C387.837 45.911 389.048 48.8077 391.26 50.967C393.525 53.0737 396.342 54.127 399.713 54.127C404.611 54.127 408.061 52.0993 410.062 48.044H419.779C418.462 52.0467 416.066 55.3383 412.59 57.919C409.114 60.447 404.822 61.711 399.713 61.711C395.552 61.711 391.866 60.7893 388.653 58.946C385.44 57.05 382.912 54.4167 381.069 51.046C379.278 47.6227 378.383 43.6727 378.383 39.196C378.383 34.7193 379.278 30.7957 381.069 27.425C382.912 24.0017 385.467 21.3683 388.732 19.525C392.05 17.6817 395.842 16.76 400.108 16.76C404.216 16.76 407.876 17.6553 411.089 19.446C414.302 21.2367 416.803 23.7383 418.594 26.951C420.385 30.1637 421.28 33.8503 421.28 38.011ZM411.879 36.115C411.826 32.5337 410.641 29.6897 408.324 27.583C406.007 25.4237 403.136 24.344 399.713 24.344C396.5 24.344 393.762 25.4237 391.497 27.583C389.285 29.6897 388.021 32.5337 387.705 36.115H411.879ZM504.31 16.76C507.576 16.76 510.499 17.471 513.079 18.893C515.66 20.315 517.688 22.4217 519.162 25.213C520.69 28.0043 521.453 31.375 521.453 35.325V61H512.447V36.668C512.447 32.7707 511.473 29.795 509.524 27.741C507.576 25.6343 504.916 24.581 501.545 24.581C498.175 24.581 495.515 25.6343 493.566 27.741C491.618 29.795 490.643 32.7707 490.643 36.668V61H481.716V36.668C481.716 32.7707 480.742 29.795 478.793 27.741C476.845 25.6343 474.185 24.581 470.814 24.581C467.444 24.581 464.758 25.6343 462.756 27.741C460.808 29.795 459.833 32.7707 459.833 36.668V61H450.827V17.471H459.833V24.344C461.255 21.8687 463.151 19.999 465.521 18.735C467.944 17.4183 470.683 16.76 473.737 16.76C477.108 16.76 480.11 17.55 482.743 19.13C485.377 20.71 487.378 23.001 488.747 26.003C490.275 23.1063 492.381 20.8417 495.067 19.209C497.806 17.5763 500.887 16.76 504.31 16.76ZM550.689 16.76C554.85 16.76 558.616 17.6817 561.986 19.525C565.357 21.3683 568.017 24.0017 569.965 27.425C571.914 30.8483 572.888 34.772 572.888 39.196C572.888 43.62 571.888 47.5437 569.886 50.967C567.885 54.3903 565.146 57.05 561.67 58.946C558.247 60.7893 554.455 61.711 550.294 61.711C546.186 61.711 542.473 60.7893 539.155 58.946C535.837 57.05 533.23 54.4167 531.334 51.046C529.438 47.6227 528.49 43.6727 528.49 39.196C528.49 34.772 529.465 30.8483 531.413 27.425C533.362 24.0017 536.022 21.3683 539.392 19.525C542.763 17.6817 546.529 16.76 550.689 16.76ZM550.531 24.344C548.214 24.344 546.081 24.9233 544.132 26.082C542.184 27.188 540.604 28.8733 539.392 31.138C538.234 33.35 537.654 36.036 537.654 39.196C537.654 42.356 538.207 45.0683 539.313 47.333C540.472 49.5977 541.999 51.3093 543.895 52.468C545.844 53.574 547.977 54.127 550.294 54.127C552.612 54.127 554.771 53.5477 556.772 52.389C558.826 51.2303 560.485 49.545 561.749 47.333C563.013 45.0683 563.645 42.356 563.645 39.196C563.645 36.036 563.04 33.35 561.828 31.138C560.617 28.8733 559.011 27.188 557.009 26.082C555.008 24.9233 552.849 24.344 550.531 24.344ZM595.538 16.76C600.384 16.76 604.281 18.024 607.23 20.552C610.232 23.0273 611.839 26.4243 612.049 30.743H602.806C602.648 28.5837 601.885 26.8983 600.515 25.687C599.199 24.4757 597.329 23.87 594.906 23.87C592.484 23.87 590.588 24.423 589.218 25.529C587.849 26.5823 587.164 27.9517 587.164 29.637C587.164 31.0063 587.612 32.1123 588.507 32.955C589.403 33.7977 590.535 34.456 591.904 34.93C593.326 35.3513 595.222 35.8253 597.592 36.352C600.805 37.0893 603.386 37.8267 605.334 38.564C607.336 39.3013 609.047 40.5127 610.469 42.198C611.891 43.8307 612.602 46.069 612.602 48.913C612.602 51.3883 611.865 53.6003 610.39 55.549C608.968 57.4977 606.967 59.025 604.386 60.131C601.806 61.1843 598.883 61.711 595.617 61.711C590.561 61.711 586.48 60.4997 583.372 58.077C580.265 55.6543 578.553 52.2047 578.237 47.728H587.559C587.717 49.8873 588.507 51.5727 589.929 52.784C591.351 53.9953 593.247 54.601 595.617 54.601C598.145 54.601 600.12 54.0743 601.542 53.021C603.017 51.915 603.754 50.493 603.754 48.755C603.754 47.333 603.28 46.2007 602.332 45.358C601.437 44.5153 600.278 43.8833 598.856 43.462C597.434 42.988 595.512 42.4877 593.089 41.961C589.929 41.2237 587.375 40.5127 585.426 39.828C583.478 39.0907 581.792 37.932 580.37 36.352C579.001 34.772 578.316 32.639 578.316 29.953C578.316 27.5303 579.001 25.3183 580.37 23.317C581.74 21.3157 583.715 19.7357 586.295 18.577C588.929 17.3657 592.01 16.76 595.538 16.76ZM631.498 24.818V48.913C631.498 50.5457 631.867 51.7307 632.604 52.468C633.394 53.1527 634.711 53.495 636.554 53.495H642.084V61H634.974C630.919 61 627.812 60.052 625.652 58.156C623.493 56.26 622.413 53.179 622.413 48.913V24.818H617.278V17.471H622.413V6.648H631.498V17.471H642.084V24.818H631.498ZM689.398 16.76C694.664 16.76 699.009 18.024 702.433 20.552C705.909 23.0273 708.252 26.5823 709.464 31.217H699.747C698.957 29.0577 697.693 27.3723 695.955 26.161C694.217 24.9497 692.031 24.344 689.398 24.344C685.711 24.344 682.762 25.6607 680.55 28.294C678.39 30.8747 677.311 34.5087 677.311 39.196C677.311 43.8833 678.39 47.5437 680.55 50.177C682.762 52.8103 685.711 54.127 689.398 54.127C694.612 54.127 698.061 51.836 699.747 47.254H709.464C708.2 51.678 705.83 55.2067 702.354 57.84C698.878 60.4207 694.559 61.711 689.398 61.711C685.237 61.711 681.55 60.7893 678.338 58.946C675.125 57.05 672.597 54.4167 670.754 51.046C668.963 47.6227 668.068 43.6727 668.068 39.196C668.068 34.7193 668.963 30.7957 670.754 27.425C672.597 24.0017 675.125 21.3683 678.338 19.525C681.55 17.6817 685.237 16.76 689.398 16.76ZM736.215 16.76C740.375 16.76 744.141 17.6817 747.512 19.525C750.882 21.3683 753.542 24.0017 755.491 27.425C757.439 30.8483 758.414 34.772 758.414 39.196C758.414 43.62 757.413 47.5437 755.412 50.967C753.41 54.3903 750.672 57.05 747.196 58.946C743.772 60.7893 739.98 61.711 735.82 61.711C731.712 61.711 727.999 60.7893 724.681 58.946C721.363 57.05 718.756 54.4167 716.86 51.046C714.964 47.6227 714.016 43.6727 714.016 39.196C714.016 34.772 714.99 30.8483 716.939 27.425C718.887 24.0017 721.547 21.3683 724.918 19.525C728.288 17.6817 732.054 16.76 736.215 16.76ZM736.057 24.344C733.739 24.344 731.606 24.9233 729.658 26.082C727.709 27.188 726.129 28.8733 724.918 31.138C723.759 33.35 723.18 36.036 723.18 39.196C723.18 42.356 723.733 45.0683 724.839 47.333C725.997 49.5977 727.525 51.3093 729.421 52.468C731.369 53.574 733.502 54.127 735.82 54.127C738.137 54.127 740.296 53.5477 742.298 52.389C744.352 51.2303 746.011 49.545 747.275 47.333C748.539 45.0683 749.171 42.356 749.171 39.196C749.171 36.036 748.565 33.35 747.354 31.138C746.142 28.8733 744.536 27.188 742.535 26.082C740.533 24.9233 738.374 24.344 736.057 24.344ZM788.727 16.76C791.887 16.76 794.731 17.471 797.259 18.893C799.839 20.315 801.867 22.4217 803.342 25.213C804.869 28.0043 805.633 31.375 805.633 35.325V61H796.706V36.668C796.706 32.7707 795.731 29.795 793.783 27.741C791.834 25.6343 789.174 24.581 785.804 24.581C782.433 24.581 779.747 25.6343 777.746 27.741C775.797 29.795 774.823 32.7707 774.823 36.668V61H765.817V17.471H774.823V24.344C776.245 21.8687 778.141 19.999 780.511 18.735C782.933 17.4183 785.672 16.76 788.727 16.76ZM833.948 16.76C839.215 16.76 843.56 18.024 846.983 20.552C850.459 23.0273 852.803 26.5823 854.014 31.217H844.297C843.507 29.0577 842.243 27.3723 840.505 26.161C838.767 24.9497 836.582 24.344 833.948 24.344C830.262 24.344 827.312 25.6607 825.1 28.294C822.941 30.8747 821.861 34.5087 821.861 39.196C821.861 43.8833 822.941 47.5437 825.1 50.177C827.312 52.8103 830.262 54.127 833.948 54.127C839.162 54.127 842.612 51.836 844.297 47.254H854.014C852.75 51.678 850.38 55.2067 846.904 57.84C843.428 60.4207 839.11 61.711 833.948 61.711C829.788 61.711 826.101 60.7893 822.888 58.946C819.676 57.05 817.148 54.4167 815.304 51.046C813.514 47.6227 812.618 43.6727 812.618 39.196C812.618 34.7193 813.514 30.7957 815.304 27.425C817.148 24.0017 819.676 21.3683 822.888 19.525C826.101 17.6817 829.788 16.76 833.948 16.76ZM901.384 38.011C901.384 39.5383 901.279 40.9603 901.068 42.277H867.73C867.941 45.911 869.152 48.8077 871.364 50.967C873.629 53.0737 876.447 54.127 879.817 54.127C884.715 54.127 888.165 52.0993 890.166 48.044H899.883C898.567 52.0467 896.17 55.3383 892.694 57.919C889.218 60.447 884.926 61.711 879.817 61.711C875.657 61.711 871.97 60.7893 868.757 58.946C865.545 57.05 863.017 54.4167 861.173 51.046C859.383 47.6227 858.487 43.6727 858.487 39.196C858.487 34.7193 859.383 30.7957 861.173 27.425C863.017 24.0017 865.571 21.3683 868.836 19.525C872.154 17.6817 875.946 16.76 880.212 16.76C884.32 16.76 887.981 17.6553 891.193 19.446C894.406 21.2367 896.908 23.7383 898.698 26.951C900.489 30.1637 901.384 33.8503 901.384 38.011ZM891.983 36.115C891.931 32.5337 890.746 29.6897 888.428 27.583C886.111 25.4237 883.241 24.344 879.817 24.344C876.605 24.344 873.866 25.4237 871.601 27.583C869.389 29.6897 868.125 32.5337 867.809 36.115H891.983ZM917.753 25.055C919.07 22.4217 920.808 20.394 922.967 18.972C925.179 17.4973 927.786 16.76 930.788 16.76V26.082H928.497C924.969 26.082 922.283 26.9773 920.439 28.768C918.649 30.5587 917.753 33.666 917.753 38.09V61H908.747V17.471H917.753V25.055ZM960.477 16.76C963.637 16.76 966.481 17.471 969.009 18.893C971.589 20.315 973.617 22.4217 975.092 25.213C976.619 28.0043 977.383 31.375 977.383 35.325V61H968.456V36.668C968.456 32.7707 967.481 29.795 965.533 27.741C963.584 25.6343 960.924 24.581 957.554 24.581C954.183 24.581 951.497 25.6343 949.496 27.741C947.547 29.795 946.573 32.7707 946.573 36.668V61H937.567V17.471H946.573V24.344C947.995 21.8687 949.891 19.999 952.261 18.735C954.683 17.4183 957.422 16.76 960.477 16.76ZM986.185 5.937C986.185 4.30433 986.738 2.935 987.844 1.829C988.95 0.722998 990.32 0.169997 991.952 0.169997C993.532 0.169997 994.875 0.722998 995.981 1.829C997.087 2.935 997.64 4.30433 997.64 5.937C997.64 7.56967 997.087 8.939 995.981 10.045C994.875 11.151 993.532 11.704 991.952 11.704C990.32 11.704 988.95 11.151 987.844 10.045C986.738 8.939 986.185 7.56967 986.185 5.937ZM996.376 17.471V61H987.37V17.471H996.376ZM1029.61 16.76C1032.77 16.76 1035.61 17.471 1038.14 18.893C1040.72 20.315 1042.75 22.4217 1044.23 25.213C1045.75 28.0043 1046.52 31.375 1046.52 35.325V61H1037.59V36.668C1037.59 32.7707 1036.62 29.795 1034.67 27.741C1032.72 25.6343 1030.06 24.581 1026.69 24.581C1023.32 24.581 1020.63 25.6343 1018.63 27.741C1016.68 29.795 1015.71 32.7707 1015.71 36.668V61H1006.7V17.471H1015.71V24.344C1017.13 21.8687 1019.02 19.999 1021.39 18.735C1023.82 17.4183 1026.56 16.76 1029.61 16.76ZM1074.04 16.76C1077.47 16.76 1080.47 17.55 1083.05 19.13C1085.68 20.6573 1087.71 22.685 1089.13 25.213V17.471H1098.22V61.711C1098.22 65.7137 1097.37 69.2687 1095.69 72.376C1094 75.536 1091.55 78.0113 1088.34 79.802C1085.18 81.5927 1081.39 82.488 1076.97 82.488C1071.07 82.488 1066.17 81.0923 1062.27 78.301C1058.37 75.5623 1056.16 71.823 1055.64 67.083H1064.56C1065.25 69.3477 1066.7 71.1647 1068.91 72.534C1071.17 73.956 1073.86 74.667 1076.97 74.667C1080.6 74.667 1083.52 73.561 1085.73 71.349C1088 69.137 1089.13 65.9243 1089.13 61.711V52.863C1087.66 55.549 1085.63 57.7083 1083.05 59.341C1080.47 60.921 1077.47 61.711 1074.04 61.711C1070.25 61.711 1066.77 60.763 1063.61 58.867C1060.51 56.9183 1058.03 54.2323 1056.19 50.809C1054.4 47.333 1053.5 43.4093 1053.5 39.038C1053.5 34.6667 1054.4 30.7957 1056.19 27.425C1058.03 24.0543 1060.51 21.4473 1063.61 19.604C1066.77 17.708 1070.25 16.76 1074.04 16.76ZM1075.94 24.581C1073.62 24.581 1071.46 25.1603 1069.46 26.319C1067.46 27.425 1065.83 29.084 1064.56 31.296C1063.35 33.4553 1062.75 36.036 1062.75 39.038C1062.75 42.04 1063.35 44.6733 1064.56 46.938C1065.83 49.2027 1067.46 50.9407 1069.46 52.152C1071.51 53.3107 1073.67 53.89 1075.94 53.89C1078.26 53.89 1080.41 53.3107 1082.42 52.152C1084.42 50.9933 1086.02 49.308 1087.24 47.096C1088.5 44.8313 1089.13 42.198 1089.13 39.196C1089.13 36.194 1088.5 33.587 1087.24 31.375C1086.02 29.163 1084.42 27.4777 1082.42 26.319C1080.41 25.1603 1078.26 24.581 1075.94 24.581ZM24.835 104.76C27.995 104.76 30.839 105.471 33.367 106.893C35.9477 108.315 37.9753 110.422 39.45 113.213C40.9773 116.004 41.741 119.375 41.741 123.325V149H32.814V124.668C32.814 120.771 31.8397 117.795 29.891 115.741C27.9423 113.634 25.2827 112.581 21.912 112.581C18.5413 112.581 15.8553 113.634 13.854 115.741C11.9053 117.795 10.931 120.771 10.931 124.668V149H1.925V90.54H10.931V112.344C12.353 109.869 14.249 107.999 16.619 106.735C19.0417 105.418 21.7803 104.76 24.835 104.76ZM71.0047 104.76C75.1654 104.76 78.931 105.682 82.3017 107.525C85.6724 109.368 88.332 112.002 90.2807 115.425C92.2294 118.848 93.2037 122.772 93.2037 127.196C93.2037 131.62 92.203 135.544 90.2017 138.967C88.2004 142.39 85.4617 145.05 81.9857 146.946C78.5624 148.789 74.7704 149.711 70.6097 149.711C66.5017 149.711 62.7887 148.789 59.4707 146.946C56.1527 145.05 53.5457 142.417 51.6497 139.046C49.7537 135.623 48.8057 131.673 48.8057 127.196C48.8057 122.772 49.78 118.848 51.7287 115.425C53.6774 112.002 56.337 109.368 59.7077 107.525C63.0784 105.682 66.844 104.76 71.0047 104.76ZM70.8467 112.344C68.5294 112.344 66.3964 112.923 64.4477 114.082C62.499 115.188 60.919 116.873 59.7077 119.138C58.549 121.35 57.9697 124.036 57.9697 127.196C57.9697 130.356 58.5227 133.068 59.6287 135.333C60.7874 137.598 62.3147 139.309 64.2107 140.468C66.1594 141.574 68.2924 142.127 70.6097 142.127C72.927 142.127 75.0864 141.548 77.0877 140.389C79.1417 139.23 80.8007 137.545 82.0647 135.333C83.3287 133.068 83.9607 130.356 83.9607 127.196C83.9607 124.036 83.355 121.35 82.1437 119.138C80.9324 116.873 79.326 115.188 77.3247 114.082C75.3234 112.923 73.164 112.344 70.8467 112.344ZM140.028 105.471V149H131.022V142.127C129.6 144.602 127.677 146.472 125.255 147.736C122.885 149 120.172 149.632 117.118 149.632C113.958 149.632 111.087 148.921 108.507 147.499C105.979 146.077 103.951 143.997 102.424 141.258C100.949 138.467 100.212 135.096 100.212 131.146V105.471H109.139V129.803C109.139 133.7 110.113 136.702 112.062 138.809C114.01 140.863 116.67 141.89 120.041 141.89C123.411 141.89 126.071 140.863 128.02 138.809C130.021 136.702 131.022 133.7 131.022 129.803V105.471H140.028ZM165.657 104.76C170.503 104.76 174.4 106.024 177.349 108.552C180.351 111.027 181.958 114.424 182.168 118.743H172.925C172.767 116.584 172.004 114.898 170.634 113.687C169.318 112.476 167.448 111.87 165.025 111.87C162.603 111.87 160.707 112.423 159.337 113.529C157.968 114.582 157.283 115.952 157.283 117.637C157.283 119.006 157.731 120.112 158.626 120.955C159.522 121.798 160.654 122.456 162.023 122.93C163.445 123.351 165.341 123.825 167.711 124.352C170.924 125.089 173.505 125.827 175.453 126.564C177.455 127.301 179.166 128.513 180.588 130.198C182.01 131.831 182.721 134.069 182.721 136.913C182.721 139.388 181.984 141.6 180.509 143.549C179.087 145.498 177.086 147.025 174.505 148.131C171.925 149.184 169.002 149.711 165.736 149.711C160.68 149.711 156.599 148.5 153.491 146.077C150.384 143.654 148.672 140.205 148.356 135.728H157.678C157.836 137.887 158.626 139.573 160.048 140.784C161.47 141.995 163.366 142.601 165.736 142.601C168.264 142.601 170.239 142.074 171.661 141.021C173.136 139.915 173.873 138.493 173.873 136.755C173.873 135.333 173.399 134.201 172.451 133.358C171.556 132.515 170.397 131.883 168.975 131.462C167.553 130.988 165.631 130.488 163.208 129.961C160.048 129.224 157.494 128.513 155.545 127.828C153.597 127.091 151.911 125.932 150.489 124.352C149.12 122.772 148.435 120.639 148.435 117.953C148.435 115.53 149.12 113.318 150.489 111.317C151.859 109.316 153.834 107.736 156.414 106.577C159.048 105.366 162.129 104.76 165.657 104.76ZM189.926 93.937C189.926 92.3043 190.479 90.935 191.585 89.829C192.691 88.723 194.06 88.17 195.693 88.17C197.273 88.17 198.616 88.723 199.722 89.829C200.828 90.935 201.381 92.3043 201.381 93.937C201.381 95.5697 200.828 96.939 199.722 98.045C198.616 99.151 197.273 99.704 195.693 99.704C194.06 99.704 192.691 99.151 191.585 98.045C190.479 96.939 189.926 95.5697 189.926 93.937ZM200.117 105.471V149H191.111V105.471H200.117ZM233.351 104.76C236.511 104.76 239.355 105.471 241.883 106.893C244.463 108.315 246.491 110.422 247.966 113.213C249.493 116.004 250.257 119.375 250.257 123.325V149H241.33V124.668C241.33 120.771 240.355 117.795 238.407 115.741C236.458 113.634 233.798 112.581 230.428 112.581C227.057 112.581 224.371 113.634 222.37 115.741C220.421 117.795 219.447 120.771 219.447 124.668V149H210.441V105.471H219.447V112.344C220.869 109.869 222.765 107.999 225.135 106.735C227.557 105.418 230.296 104.76 233.351 104.76ZM277.782 104.76C281.206 104.76 284.208 105.55 286.788 107.13C289.422 108.657 291.449 110.685 292.871 113.213V105.471H301.956V149.711C301.956 153.714 301.114 157.269 299.428 160.376C297.743 163.536 295.294 166.011 292.081 167.802C288.921 169.593 285.129 170.488 280.705 170.488C274.807 170.488 269.909 169.092 266.011 166.301C262.114 163.562 259.902 159.823 259.375 155.083H268.302C268.987 157.348 270.435 159.165 272.647 160.534C274.912 161.956 277.598 162.667 280.705 162.667C284.339 162.667 287.262 161.561 289.474 159.349C291.739 157.137 292.871 153.924 292.871 149.711V140.863C291.397 143.549 289.369 145.708 286.788 147.341C284.208 148.921 281.206 149.711 277.782 149.711C273.99 149.711 270.514 148.763 267.354 146.867C264.247 144.918 261.772 142.232 259.928 138.809C258.138 135.333 257.242 131.409 257.242 127.038C257.242 122.667 258.138 118.796 259.928 115.425C261.772 112.054 264.247 109.447 267.354 107.604C270.514 105.708 273.99 104.76 277.782 104.76ZM279.678 112.581C277.361 112.581 275.202 113.16 273.2 114.319C271.199 115.425 269.566 117.084 268.302 119.296C267.091 121.455 266.485 124.036 266.485 127.038C266.485 130.04 267.091 132.673 268.302 134.938C269.566 137.203 271.199 138.941 273.2 140.152C275.254 141.311 277.414 141.89 279.678 141.89C281.996 141.89 284.155 141.311 286.156 140.152C288.158 138.993 289.764 137.308 290.975 135.096C292.239 132.831 292.871 130.198 292.871 127.196C292.871 124.194 292.239 121.587 290.975 119.375C289.764 117.163 288.158 115.478 286.156 114.319C284.155 113.16 281.996 112.581 279.678 112.581ZM352.798 104.76C358.065 104.76 362.41 106.024 365.833 108.552C369.309 111.027 371.653 114.582 372.864 119.217H363.147C362.357 117.058 361.093 115.372 359.355 114.161C357.617 112.95 355.431 112.344 352.798 112.344C349.111 112.344 346.162 113.661 343.95 116.294C341.791 118.875 340.711 122.509 340.711 127.196C340.711 131.883 341.791 135.544 343.95 138.177C346.162 140.81 349.111 142.127 352.798 142.127C358.012 142.127 361.462 139.836 363.147 135.254H372.864C371.6 139.678 369.23 143.207 365.754 145.84C362.278 148.421 357.959 149.711 352.798 149.711C348.637 149.711 344.951 148.789 341.738 146.946C338.525 145.05 335.997 142.417 334.154 139.046C332.363 135.623 331.468 131.673 331.468 127.196C331.468 122.719 332.363 118.796 334.154 115.425C335.997 112.002 338.525 109.368 341.738 107.525C344.951 105.682 348.637 104.76 352.798 104.76ZM403.249 104.76C406.409 104.76 409.253 105.471 411.781 106.893C414.362 108.315 416.389 110.422 417.864 113.213C419.391 116.004 420.155 119.375 420.155 123.325V149H411.228V124.668C411.228 120.771 410.254 117.795 408.305 115.741C406.356 113.634 403.697 112.581 400.326 112.581C396.955 112.581 394.269 113.634 392.268 115.741C390.319 117.795 389.345 120.771 389.345 124.668V149H380.339V90.54H389.345V112.344C390.767 109.869 392.663 107.999 395.033 106.735C397.456 105.418 400.194 104.76 403.249 104.76ZM447.681 104.76C451.104 104.76 454.106 105.55 456.687 107.13C459.32 108.657 461.348 110.685 462.77 113.213V105.471H471.855V149H462.77V140.863C461.295 143.549 459.267 145.708 456.687 147.341C454.106 148.921 451.104 149.711 447.681 149.711C443.889 149.711 440.413 148.763 437.253 146.867C434.145 144.918 431.67 142.232 429.827 138.809C428.036 135.333 427.141 131.409 427.141 127.038C427.141 122.667 428.036 118.796 429.827 115.425C431.67 112.054 434.145 109.447 437.253 107.604C440.413 105.708 443.889 104.76 447.681 104.76ZM449.577 112.581C447.259 112.581 445.1 113.16 443.099 114.319C441.097 115.425 439.465 117.084 438.201 119.296C436.989 121.455 436.384 124.036 436.384 127.038C436.384 130.04 436.989 132.673 438.201 134.938C439.465 137.203 441.097 138.941 443.099 140.152C445.153 141.311 447.312 141.89 449.577 141.89C451.894 141.89 454.053 141.311 456.055 140.152C458.056 138.993 459.662 137.308 460.874 135.096C462.138 132.831 462.77 130.198 462.77 127.196C462.77 124.194 462.138 121.587 460.874 119.375C459.662 117.163 458.056 115.478 456.055 114.319C454.053 113.16 451.894 112.581 449.577 112.581ZM491.19 90.54V149H482.184V90.54H491.19ZM510.52 90.54V149H501.514V90.54H510.52ZM560.739 126.011C560.739 127.538 560.634 128.96 560.423 130.277H527.085C527.296 133.911 528.507 136.808 530.719 138.967C532.984 141.074 535.801 142.127 539.172 142.127C544.07 142.127 547.52 140.099 549.521 136.044H559.238C557.921 140.047 555.525 143.338 552.049 145.919C548.573 148.447 544.281 149.711 539.172 149.711C535.011 149.711 531.325 148.789 528.112 146.946C524.899 145.05 522.371 142.417 520.528 139.046C518.737 135.623 517.842 131.673 517.842 127.196C517.842 122.719 518.737 118.796 520.528 115.425C522.371 112.002 524.926 109.368 528.191 107.525C531.509 105.682 535.301 104.76 539.567 104.76C543.675 104.76 547.335 105.655 550.548 107.446C553.761 109.237 556.262 111.738 558.053 114.951C559.844 118.164 560.739 121.85 560.739 126.011ZM551.338 124.115C551.285 120.534 550.1 117.69 547.783 115.583C545.466 113.424 542.595 112.344 539.172 112.344C535.959 112.344 533.221 113.424 530.956 115.583C528.744 117.69 527.48 120.534 527.164 124.115H551.338ZM591.012 104.76C594.172 104.76 597.016 105.471 599.544 106.893C602.124 108.315 604.152 110.422 605.627 113.213C607.154 116.004 607.918 119.375 607.918 123.325V149H598.991V124.668C598.991 120.771 598.016 117.795 596.068 115.741C594.119 113.634 591.459 112.581 588.089 112.581C584.718 112.581 582.032 113.634 580.031 115.741C578.082 117.795 577.108 120.771 577.108 124.668V149H568.102V105.471H577.108V112.344C578.53 109.869 580.426 107.999 582.796 106.735C585.218 105.418 587.957 104.76 591.012 104.76ZM635.443 104.76C638.867 104.76 641.869 105.55 644.449 107.13C647.083 108.657 649.11 110.685 650.532 113.213V105.471H659.617V149.711C659.617 153.714 658.775 157.269 657.089 160.376C655.404 163.536 652.955 166.011 649.742 167.802C646.582 169.593 642.79 170.488 638.366 170.488C632.468 170.488 627.57 169.092 623.672 166.301C619.775 163.562 617.563 159.823 617.036 155.083H625.963C626.648 157.348 628.096 159.165 630.308 160.534C632.573 161.956 635.259 162.667 638.366 162.667C642 162.667 644.923 161.561 647.135 159.349C649.4 157.137 650.532 153.924 650.532 149.711V140.863C649.058 143.549 647.03 145.708 644.449 147.341C641.869 148.921 638.867 149.711 635.443 149.711C631.651 149.711 628.175 148.763 625.015 146.867C621.908 144.918 619.433 142.232 617.589 138.809C615.799 135.333 614.903 131.409 614.903 127.038C614.903 122.667 615.799 118.796 617.589 115.425C619.433 112.054 621.908 109.447 625.015 107.604C628.175 105.708 631.651 104.76 635.443 104.76ZM637.339 112.581C635.022 112.581 632.863 113.16 630.861 114.319C628.86 115.425 627.227 117.084 625.963 119.296C624.752 121.455 624.146 124.036 624.146 127.038C624.146 130.04 624.752 132.673 625.963 134.938C627.227 137.203 628.86 138.941 630.861 140.152C632.915 141.311 635.075 141.89 637.339 141.89C639.657 141.89 641.816 141.311 643.817 140.152C645.819 138.993 647.425 137.308 648.636 135.096C649.9 132.831 650.532 130.198 650.532 127.196C650.532 124.194 649.9 121.587 648.636 119.375C647.425 117.163 645.819 115.478 643.817 114.319C641.816 113.16 639.657 112.581 637.339 112.581ZM709.841 126.011C709.841 127.538 709.736 128.96 709.525 130.277H676.187C676.398 133.911 677.609 136.808 679.821 138.967C682.086 141.074 684.904 142.127 688.274 142.127C693.172 142.127 696.622 140.099 698.623 136.044H708.34C707.024 140.047 704.627 143.338 701.151 145.919C697.675 148.447 693.383 149.711 688.274 149.711C684.114 149.711 680.427 148.789 677.214 146.946C674.002 145.05 671.474 142.417 669.63 139.046C667.84 135.623 666.944 131.673 666.944 127.196C666.944 122.719 667.84 118.796 669.63 115.425C671.474 112.002 674.028 109.368 677.293 107.525C680.611 105.682 684.403 104.76 688.669 104.76C692.777 104.76 696.438 105.655 699.65 107.446C702.863 109.237 705.365 111.738 707.155 114.951C708.946 118.164 709.841 121.85 709.841 126.011ZM700.44 124.115C700.388 120.534 699.203 117.69 696.885 115.583C694.568 113.424 691.698 112.344 688.274 112.344C685.062 112.344 682.323 113.424 680.058 115.583C677.846 117.69 676.582 120.534 676.266 124.115H700.44ZM732.451 104.76C737.297 104.76 741.194 106.024 744.143 108.552C747.145 111.027 748.752 114.424 748.962 118.743H739.719C739.561 116.584 738.798 114.898 737.428 113.687C736.112 112.476 734.242 111.87 731.819 111.87C729.397 111.87 727.501 112.423 726.131 113.529C724.762 114.582 724.077 115.952 724.077 117.637C724.077 119.006 724.525 120.112 725.42 120.955C726.316 121.798 727.448 122.456 728.817 122.93C730.239 123.351 732.135 123.825 734.505 124.352C737.718 125.089 740.299 125.827 742.247 126.564C744.249 127.301 745.96 128.513 747.382 130.198C748.804 131.831 749.515 134.069 749.515 136.913C749.515 139.388 748.778 141.6 747.303 143.549C745.881 145.498 743.88 147.025 741.299 148.131C738.719 149.184 735.796 149.711 732.53 149.711C727.474 149.711 723.393 148.5 720.285 146.077C717.178 143.654 715.466 140.205 715.15 135.728H724.472C724.63 137.887 725.42 139.573 726.842 140.784C728.264 141.995 730.16 142.601 732.53 142.601C735.058 142.601 737.033 142.074 738.455 141.021C739.93 139.915 740.667 138.493 740.667 136.755C740.667 135.333 740.193 134.201 739.245 133.358C738.35 132.515 737.191 131.883 735.769 131.462C734.347 130.988 732.425 130.488 730.002 129.961C726.842 129.224 724.288 128.513 722.339 127.828C720.391 127.091 718.705 125.932 717.283 124.352C715.914 122.772 715.229 120.639 715.229 117.953C715.229 115.53 715.914 113.318 717.283 111.317C718.653 109.316 720.628 107.736 723.208 106.577C725.842 105.366 728.923 104.76 732.451 104.76ZM755.85 143.628C755.85 142.101 756.351 140.81 757.351 139.757C758.405 138.704 759.695 138.177 761.222 138.177C762.75 138.177 764.04 138.704 765.093 139.757C766.147 140.81 766.673 142.101 766.673 143.628C766.673 145.155 766.147 146.446 765.093 147.499C764.04 148.5 762.75 149 761.222 149C759.748 149 758.484 148.473 757.43 147.42C756.377 146.367 755.85 145.103 755.85 143.628Z" fill="white"/>
</svg>
