<svg width="45" height="45" viewBox="0 0 45 45" fill="none" xmlns="http://www.w3.org/2000/svg">
<path d="M5.625 24.5306C5.625 24.3863 5.625 24.3131 5.62875 24.2531C5.65829 23.7989 5.85208 23.3709 6.17397 23.049C6.49586 22.7271 6.92386 22.5333 7.37812 22.5037C7.44 22.5 7.50938 22.5 7.65563 22.5H37.3444C37.4887 22.5 37.56 22.5 37.6219 22.5037C38.0761 22.5333 38.5041 22.7271 38.826 23.049C39.1479 23.3709 39.3417 23.7989 39.3712 24.2531C39.375 24.3131 39.375 24.3844 39.375 24.5306C39.375 25.2713 39.375 25.6425 39.3488 26.0587C38.9569 32.2219 33.7181 37.6631 27.5738 38.2837C27.1594 38.3269 26.9175 38.3362 26.4337 38.355C25.1231 38.4067 23.8116 38.4342 22.5 38.4375C21.2813 38.4375 19.9425 38.4056 18.5663 38.355C18.0825 38.3362 17.8406 38.3269 17.4281 38.2856C11.2819 37.6631 6.04313 32.2219 5.65313 26.0587C5.625 25.6425 5.625 25.2713 5.625 24.5306Z" stroke="white" stroke-width="2.8125"/>
<path d="M11.25 37.5L9.375 41.25M33.75 37.5L35.625 41.25M3.75 22.5H41.25" stroke="white" stroke-width="2.8125" stroke-linecap="round"/>
<path d="M4.21875 24.375C4.21875 24.748 4.36691 25.1056 4.63063 25.3694C4.89435 25.6331 5.25204 25.7812 5.625 25.7812C5.99796 25.7812 6.35565 25.6331 6.61937 25.3694C6.88309 25.1056 7.03125 24.748 7.03125 24.375H4.21875ZM11.8988 16.3912L10.59 16.9069C10.6592 17.0819 10.7629 17.2412 10.8948 17.3754C11.0268 17.5097 11.1843 17.616 11.3581 17.6882C11.5319 17.7605 11.7184 17.797 11.9066 17.7958C12.0948 17.7946 12.2809 17.7557 12.4538 17.6813L11.8988 16.3912ZM23.0737 11.5781L23.6306 12.8719C23.9662 12.7273 24.2324 12.4578 24.3727 12.1204C24.5131 11.7831 24.5166 11.4043 24.3825 11.0644L23.0737 11.5781ZM7.03125 24.375V8.22188H4.21875V24.375H7.03125ZM10.0969 5.15625C11.3513 5.15625 12.4781 5.91938 12.9431 7.08375L15.555 6.0375C15.1189 4.94685 14.366 4.01375 13.3935 3.35504C12.4209 2.69633 11.2734 2.34409 10.0988 2.34375L10.0969 5.15625ZM7.03125 8.22188C7.03125 6.52875 8.40375 5.15625 10.0969 5.15625L10.0988 2.34375C8.53977 2.34375 7.04278 2.96305 5.94041 4.06541C4.83805 5.16778 4.21875 6.6629 4.21875 8.22188H7.03125ZM12.9431 7.08375L13.6556 8.86125L16.2656 7.81688L15.555 6.0375L12.9431 7.08375ZM13.2056 15.8756C12.734 14.6735 12.7434 13.336 13.2319 12.1406L10.6256 11.0812C9.86487 12.9461 9.85332 15.0324 10.59 16.9069L13.2056 15.8756ZM22.5188 10.2881L11.3419 15.0994L12.4538 17.6813L23.6287 12.87L22.5188 10.2881ZM19.2787 9.5025C20.445 10.0012 21.3131 10.9444 21.7669 12.0938L24.3825 11.0644C24.0249 10.1423 23.4872 9.29881 22.8009 8.58673C22.1145 7.87464 21.2933 7.30635 20.385 6.915L19.2787 9.5025ZM13.2319 12.1406C13.6717 11.0333 14.5069 10.1305 15.5756 9.60375L14.3456 7.07625C12.6531 7.9054 11.3278 9.33223 10.6256 11.0812L13.2319 12.1406ZM15.5756 9.60375C16.1491 9.3207 16.777 9.16524 17.4163 9.14809C18.0556 9.13093 18.691 9.25061 19.2787 9.5025L20.385 6.915C19.4262 6.50506 18.3902 6.30894 17.3479 6.33645C16.3055 6.36396 15.2814 6.61631 14.3456 7.07625L15.5756 9.60375Z" fill="white"/>
</svg>
