<svg width="45" height="45" viewBox="0 0 45 45" fill="none" xmlns="http://www.w3.org/2000/svg">
<path d="M4.21875 36.5625V26.7188C4.22316 25.2283 4.8172 23.8001 5.87114 22.7461C6.92508 21.6922 8.35326 21.0982 9.84375 21.0938H35.1562C36.6467 21.0982 38.0749 21.6922 39.1289 22.7461C40.1828 23.8001 40.7768 25.2283 40.7812 26.7188V36.5625M33.75 21.0938H8.4375V11.9531C8.44028 11.0216 8.81157 10.129 9.47028 9.47028C10.129 8.81157 11.0216 8.44028 11.9531 8.4375H33.0469C33.9784 8.44028 34.871 8.81157 35.5297 9.47028C36.1884 10.129 36.5597 11.0216 36.5625 11.9531V21.0938H33.75Z" stroke="white" stroke-width="2.8125" stroke-linecap="round" stroke-linejoin="round"/>
<path d="M4.21875 36.5625V35.8594C4.22037 35.3004 4.44313 34.7648 4.83836 34.3696C5.2336 33.9744 5.76918 33.7516 6.32812 33.75H38.6719C39.2308 33.7516 39.7664 33.9744 40.1616 34.3696C40.5569 34.7648 40.7796 35.3004 40.7812 35.8594V36.5625M9.84375 21.0938V19.6875C9.84584 18.9422 10.1428 18.2281 10.6698 17.7011C11.1968 17.1741 11.911 16.8771 12.6562 16.875H19.6875C20.4328 16.8771 21.1469 17.1741 21.6739 17.7011C22.2009 18.2281 22.4979 18.9422 22.5 19.6875M22.5 19.6875V21.0938M22.5 19.6875C22.5021 18.9422 22.7991 18.2281 23.3261 17.7011C23.8531 17.1741 24.5672 16.8771 25.3125 16.875H32.3438C33.089 16.8771 33.8032 17.1741 34.3302 17.7011C34.8572 18.2281 35.1542 18.9422 35.1562 19.6875V21.0938" stroke="white" stroke-width="2.8125" stroke-linecap="round" stroke-linejoin="round"/>
</svg>
