<svg width="45" height="45" viewBox="0 0 45 45" fill="none" xmlns="http://www.w3.org/2000/svg">
<path d="M24.375 16.875C24.375 17.3723 24.1775 17.8492 23.8258 18.2008C23.4742 18.5525 22.9973 18.75 22.5 18.75C22.0027 18.75 21.5258 18.5525 21.1742 18.2008C20.8225 17.8492 20.625 17.3723 20.625 16.875C20.625 16.3777 20.8225 15.9008 21.1742 15.5492C21.5258 15.1975 22.0027 15 22.5 15C22.9973 15 23.4742 15.1975 23.8258 15.5492C24.1775 15.9008 24.375 16.3777 24.375 16.875Z" stroke="white" stroke-width="3.75" stroke-linejoin="round"/>
<path d="M32.8125 17.8125C32.8125 23.5088 29.0625 30 22.5 37.5C15.9375 30 12.1875 23.5088 12.1875 17.8125C12.1875 15.0775 13.274 12.4544 15.208 10.5205C17.1419 8.58649 19.765 7.5 22.5 7.5C25.235 7.5 27.8581 8.58649 29.792 10.5205C31.726 12.4544 32.8125 15.0775 32.8125 17.8125Z" stroke="white" stroke-width="3.75" stroke-linejoin="round"/>
</svg>
