<svg width="45" height="45" viewBox="0 0 45 45" fill="none" xmlns="http://www.w3.org/2000/svg">
<path d="M26.7188 40.125C26 40.8438 25.1094 41.2031 24.0469 41.2031C22.9844 41.2031 22.0938 40.8438 21.375 40.125L4.87501 23.625C4.53126 23.2813 4.25751 22.875 4.05376 22.4063C3.85001 21.9375 3.74876 21.4375 3.75001 20.9063V7.5C3.75001 6.46875 4.11751 5.58563 4.85251 4.85063C5.58751 4.11563 6.47001 3.74875 7.50001 3.75H20.9063C21.4375 3.75 21.9375 3.85188 22.4063 4.05563C22.875 4.25938 23.2813 4.5325 23.625 4.875L40.125 21.4219C40.8438 22.1406 41.2031 23.0238 41.2031 24.0713C41.2031 25.1188 40.8438 26.0013 40.125 26.7188L26.7188 40.125ZM24.0469 37.5L37.4531 24.0938L20.9063 7.5H7.50001V20.9063L24.0469 37.5ZM12.1875 15C12.9688 15 13.6331 14.7263 14.1806 14.1788C14.7281 13.6313 15.0013 12.9675 15 12.1875C15 11.4063 14.7263 10.7419 14.1788 10.1944C13.6313 9.64688 12.9675 9.37375 12.1875 9.375C11.4063 9.375 10.7419 9.64875 10.1944 10.1963C9.64689 10.7438 9.37376 11.4075 9.37501 12.1875C9.37501 12.9688 9.64876 13.6331 10.1963 14.1806C10.7438 14.7281 11.4075 15.0013 12.1875 15Z" fill="white"/>
</svg>
