<svg width="25" height="25" viewBox="0 0 25 25" fill="none" xmlns="http://www.w3.org/2000/svg">
<g clip-path="url(#clip0_936_553)">
<path d="M20.7403 15H14.3159V20.5169H20.7403V15Z" fill="black"/>
<path d="M11.8012 15.082H4.25977V15.92H11.8012V15.082Z" fill="black"/>
<path d="M11.8012 19.5938H4.25977V20.4317H11.8012V19.5938Z" fill="black"/>
<path d="M11.8012 17.3398H4.25977V18.1778H11.8012V17.3398Z" fill="black"/>
<path d="M20.3334 0H4.66699C2.08921 0.000439453 0.00078125 2.08926 0 4.66665V19.495C0.0012207 22.5352 2.46401 24.9988 5.50498 24.9996H19.4954C22.5359 24.9988 24.9992 22.5355 25 19.495V4.66665C24.9996 2.08926 22.9107 0.000439453 20.3334 0ZM22.6956 19.495C22.6952 20.3813 22.3387 21.1759 21.7582 21.7577C21.1763 22.3383 20.3817 22.6947 19.4955 22.6951H5.50498C4.61875 22.6947 3.82368 22.3383 3.24189 21.7577C2.66123 21.1759 2.30527 20.3813 2.30449 19.495V5.79551H22.6956V19.495H22.6956Z" fill="black"/>
<path d="M4.34385 13.0803H6.03247C6.99487 13.0803 7.57749 12.6613 7.57749 11.784C7.57749 11.2541 7.27637 10.8871 6.98179 10.7758V10.7627C7.27642 10.599 7.49897 10.2979 7.49897 9.81387C7.49897 9.1064 7.04727 8.62891 6.07876 8.62891H4.34385C4.30498 8.62891 4.27881 8.65508 4.27881 8.69434V13.0144C4.27881 13.0541 4.30498 13.0803 4.34385 13.0803ZM5.24121 9.44683C5.24121 9.42104 5.25347 9.40757 5.28047 9.40757H5.96133C6.32754 9.40757 6.5436 9.59741 6.5436 9.92436C6.5436 10.2521 6.32754 10.4485 5.96133 10.4485H5.28047C5.25347 10.4485 5.24121 10.4354 5.24121 10.4092V9.44683ZM5.24121 11.2271C5.24121 11.2013 5.25347 11.1883 5.28047 11.1883H6.01289C6.40649 11.1883 6.61558 11.4043 6.61558 11.7452C6.61558 12.0917 6.40649 12.3016 6.01289 12.3016H5.28047C5.25347 12.3016 5.24121 12.2881 5.24121 12.262V11.2271Z" fill="black"/>
<path d="M8.86294 13.0802H11.7635C11.8024 13.0802 11.8286 13.0541 11.8286 13.0144V12.2881C11.8286 12.2484 11.8024 12.2226 11.7635 12.2226H9.79946C9.7729 12.2226 9.76021 12.2095 9.76021 12.183V8.69434C9.76021 8.65508 9.73442 8.62891 9.69473 8.62891H8.86289C8.82358 8.62891 8.79785 8.65508 8.79785 8.69434V13.0144C8.79785 13.054 8.82363 13.0802 8.86294 13.0802Z" fill="black"/>
<path d="M14.2924 13.1536C15.0719 13.1536 15.6869 12.7939 15.916 12.0738C16.0142 11.7661 16.04 11.5173 16.04 10.8561C16.04 10.1949 16.0142 9.94609 15.916 9.63838C15.6869 8.9187 15.0719 8.55859 14.2924 8.55859C13.5133 8.55859 12.898 8.9187 12.6692 9.63838C12.5706 9.94609 12.5444 10.1949 12.5444 10.8561C12.5444 11.5173 12.5706 11.7661 12.6692 12.0738C12.8979 12.794 13.5133 13.1536 14.2924 13.1536ZM13.5919 9.90029C13.6901 9.59263 13.9262 9.40933 14.2924 9.40933C14.659 9.40933 14.8947 9.59263 14.9929 9.90029C15.0453 10.0578 15.0648 10.273 15.0648 10.8562C15.0648 11.4384 15.0452 11.6548 14.9929 11.8116C14.8947 12.1197 14.659 12.3034 14.2924 12.3034C13.9262 12.3034 13.6901 12.1196 13.5919 11.8116C13.5399 11.6548 13.5199 11.4384 13.5199 10.8562C13.5199 10.273 13.5399 10.0578 13.5919 9.90029Z" fill="black"/>
<path d="M18.9436 13.1536C19.7288 13.1536 20.3442 12.7546 20.5671 12.0406C20.6453 11.7988 20.6776 11.4322 20.6776 11.0394V10.6724C20.6776 10.6339 20.6515 10.6073 20.6126 10.6073H19.0811C19.0414 10.6073 19.0152 10.6339 19.0152 10.6724V11.3017C19.0152 11.3405 19.0414 11.3667 19.0811 11.3667H19.6829C19.7091 11.3667 19.7222 11.3802 19.7222 11.406C19.7222 11.5954 19.7025 11.7333 19.6698 11.845C19.5781 12.1393 19.2901 12.3033 18.9562 12.3033C18.57 12.3033 18.3273 12.1196 18.2291 11.8115C18.1772 11.6548 18.1576 11.4383 18.1576 10.8561C18.1576 10.273 18.1772 10.064 18.2291 9.90684C18.3273 9.59912 18.5635 9.40928 18.9436 9.40928C19.3098 9.40928 19.5319 9.56641 19.7091 9.86753C19.7222 9.90024 19.7549 9.91338 19.8012 9.90024L20.5013 9.60566C20.5401 9.58604 20.5475 9.54678 20.5274 9.50708C20.3175 8.97021 19.7746 8.55859 18.9435 8.55859C18.1509 8.55859 17.5355 8.9187 17.3064 9.63838C17.2082 9.94609 17.1816 10.1949 17.1816 10.8561C17.1816 11.5173 17.2083 11.7661 17.3064 12.0738C17.5356 12.794 18.151 13.1536 18.9436 13.1536Z" fill="black"/>
</g>
<defs>
<clipPath id="clip0_936_553">
<rect width="25" height="25" fill="white"/>
</clipPath>
</defs>
</svg>
