<svg width="100" height="100" viewBox="0 0 100 100" fill="none" xmlns="http://www.w3.org/2000/svg">
<path d="M8.33337 45.8335L20.0292 32.6793C21.5929 30.9197 23.5115 29.5112 25.6589 28.5467C27.8062 27.5822 30.1335 27.0835 32.4875 27.0835H33.3334M8.33337 81.2502H31.25L47.9167 68.7502C47.9167 68.7502 51.2917 66.471 56.25 62.5002C66.6667 54.1668 56.25 40.9752 45.8334 47.9168C37.35 53.571 29.1667 58.3335 29.1667 58.3335" stroke="white" stroke-width="6" stroke-linecap="round" stroke-linejoin="round"/>
<path d="M33.3334 56.2502V29.1668C33.3334 26.9567 34.2113 24.8371 35.7742 23.2743C37.337 21.7115 39.4566 20.8335 41.6667 20.8335H83.3334C85.5435 20.8335 87.6631 21.7115 89.2259 23.2743C90.7887 24.8371 91.6667 26.9567 91.6667 29.1668V54.1668C91.6667 56.377 90.7887 58.4966 89.2259 60.0594C87.6631 61.6222 85.5435 62.5002 83.3334 62.5002H56.25" stroke="white" stroke-width="6"/>
<path d="M81.25 41.7085L81.2917 41.6627M43.75 41.7085L43.7917 41.6627M62.5 50.0002C60.2899 50.0002 58.1702 49.1222 56.6074 47.5594C55.0446 45.9966 54.1667 43.877 54.1667 41.6668C54.1667 39.4567 55.0446 37.3371 56.6074 35.7743C58.1702 34.2115 60.2899 33.3335 62.5 33.3335C64.7101 33.3335 66.8298 34.2115 68.3926 35.7743C69.9554 37.3371 70.8333 39.4567 70.8333 41.6668C70.8333 43.877 69.9554 45.9966 68.3926 47.5594C66.8298 49.1222 64.7101 50.0002 62.5 50.0002Z" stroke="white" stroke-width="6" stroke-linecap="round" stroke-linejoin="round"/>
</svg>
