<svg width="30" height="30" viewBox="0 0 30 30" fill="none" xmlns="http://www.w3.org/2000/svg">
<path d="M16.25 11.25C16.25 11.5815 16.1183 11.8995 15.8839 12.1339C15.6495 12.3683 15.3315 12.5 15 12.5C14.6685 12.5 14.3505 12.3683 14.1161 12.1339C13.8817 11.8995 13.75 11.5815 13.75 11.25C13.75 10.9185 13.8817 10.6005 14.1161 10.3661C14.3505 10.1317 14.6685 10 15 10C15.3315 10 15.6495 10.1317 15.8839 10.3661C16.1183 10.6005 16.25 10.9185 16.25 11.25Z" stroke="#0E344B" stroke-width="2.75" stroke-linejoin="round"/>
<path d="M21.875 11.875C21.875 15.6725 19.375 20 15 25C10.625 20 8.125 15.6725 8.125 11.875C8.125 10.0516 8.84933 8.30295 10.1386 7.01364C11.428 5.72433 13.1766 5 15 5C16.8234 5 18.572 5.72433 19.8614 7.01364C21.1507 8.30295 21.875 10.0516 21.875 11.875Z" stroke="#0E344B" stroke-width="2.75" stroke-linejoin="round"/>
</svg>
