<svg width="100" height="100" viewBox="0 0 100 100" fill="none" xmlns="http://www.w3.org/2000/svg">
<g clip-path="url(#clip0_67_1113)">
<path d="M28 69.3335C29.0608 69.0241 30.2012 69.1488 31.1701 69.6801C32.139 70.2115 32.8572 71.106 33.1666 72.1668C33.476 73.2277 33.3514 74.368 32.82 75.337C32.2887 76.3059 31.3942 77.0241 30.3333 77.3335C28.25 77.9418 26.75 78.5835 25.7875 79.1668C26.7791 79.7627 28.3458 80.4293 30.5208 81.0502C35.3333 82.4252 42.2208 83.3335 50 83.3335C57.7791 83.3335 64.6666 82.4252 69.4791 81.0502C71.6583 80.4293 73.2208 79.7627 74.2125 79.1668C73.2541 78.5835 71.7541 77.9418 69.6708 77.3335C68.6266 77.0105 67.7512 76.2901 67.2332 75.3276C66.7152 74.3651 66.5962 73.2377 66.9017 72.1882C67.2073 71.1388 67.9129 70.2515 68.8666 69.7175C69.8203 69.1835 70.9456 69.0456 72 69.3335C74.7833 70.146 77.3333 71.1877 79.2916 72.5252C81.1041 73.771 83.3333 75.9418 83.3333 79.1668C83.3333 82.4293 81.05 84.6168 79.2083 85.8627C77.2166 87.2043 74.6125 88.2502 71.7666 89.0627C66.025 90.7085 58.3333 91.6668 50 91.6668C41.6666 91.6668 33.975 90.7085 28.2333 89.0627C25.3875 88.2502 22.7833 87.2043 20.7916 85.8627C18.95 84.6127 16.6666 82.4293 16.6666 79.1668C16.6666 75.9418 18.8958 73.771 20.7083 72.5252C22.6666 71.1877 25.2166 70.146 28 69.3335ZM50 8.3335C58.288 8.3335 66.2365 11.6259 72.097 17.4864C77.9576 23.3469 81.25 31.2955 81.25 39.5835C81.25 50.2835 75.4166 58.9835 69.375 65.1668C66.9733 67.5998 64.3924 69.8492 61.6541 71.896C59.1791 73.7543 53.5208 77.2377 53.5208 77.2377C52.4476 77.8477 51.2344 78.1684 50 78.1684C48.7655 78.1684 47.5523 77.8477 46.4791 77.2377C43.6698 75.6113 40.9544 73.8279 38.3458 71.896C35.6064 69.8506 33.0254 67.6011 30.625 65.1668C24.5833 58.9835 18.75 50.2835 18.75 39.5835C18.75 31.2955 22.0424 23.3469 27.9029 17.4864C33.7634 11.6259 41.7119 8.3335 50 8.3335ZM50 16.6668C43.9221 16.6668 38.0931 19.0813 33.7954 23.379C29.4977 27.6767 27.0833 33.5056 27.0833 39.5835C27.0833 47.1502 31.2333 53.8668 36.5833 59.3335C40.6083 63.4502 45.0416 66.5835 48.1125 68.5085L50 69.6502L51.8875 68.5085C54.9541 66.5835 59.3916 63.4502 63.4166 59.3377C68.7666 53.8668 72.9166 47.1502 72.9166 39.5835C72.9166 33.5056 70.5022 27.6767 66.2045 23.379C61.9068 19.0813 56.0778 16.6668 50 16.6668ZM50 27.0835C51.6415 27.0835 53.2669 27.4068 54.7835 28.035C56.3001 28.6632 57.6781 29.5839 58.8388 30.7447C59.9995 31.9054 60.9203 33.2834 61.5485 34.8C62.1766 36.3165 62.5 37.942 62.5 39.5835C62.5 41.225 62.1766 42.8505 61.5485 44.367C60.9203 45.8836 59.9995 47.2616 58.8388 48.4223C57.6781 49.5831 56.3001 50.5038 54.7835 51.132C53.2669 51.7602 51.6415 52.0835 50 52.0835C46.6848 52.0835 43.5053 50.7665 41.1611 48.4223C38.8169 46.0781 37.5 42.8987 37.5 39.5835C37.5 36.2683 38.8169 33.0889 41.1611 30.7447C43.5053 28.4005 46.6848 27.0835 50 27.0835ZM50 35.4168C48.8949 35.4168 47.8351 35.8558 47.0537 36.6372C46.2723 37.4186 45.8333 38.4784 45.8333 39.5835C45.8333 40.6886 46.2723 41.7484 47.0537 42.5298C47.8351 43.3112 48.8949 43.7502 50 43.7502C51.105 43.7502 52.1648 43.3112 52.9462 42.5298C53.7276 41.7484 54.1666 40.6886 54.1666 39.5835C54.1666 38.4784 53.7276 37.4186 52.9462 36.6372C52.1648 35.8558 51.105 35.4168 50 35.4168Z" fill="white"/>
</g>
<defs>
<clipPath id="clip0_67_1113">
<rect width="100" height="100" fill="white"/>
</clipPath>
</defs>
</svg>
