<svg width="35" height="35" viewBox="0 0 35 35" fill="none" xmlns="http://www.w3.org/2000/svg">
<path d="M14.7787 15.3649L17.1281 13.2124C17.7705 12.6227 18.222 11.8544 18.4247 11.0063C18.6274 10.1582 18.572 9.26881 18.2656 8.45237L17.2637 5.77706C16.8894 4.77829 16.1484 3.95979 15.1917 3.48833C14.2349 3.01686 13.1344 2.9279 12.1143 3.23956C8.36059 4.388 5.47528 7.87706 6.3634 12.0202C6.94746 14.7458 8.06528 18.1671 10.1828 21.8071C12.3047 25.4558 14.7284 28.1508 16.8065 30.0452C19.9434 32.8999 24.4278 32.1868 27.3131 29.4961C28.0865 28.775 28.5558 27.786 28.6253 26.7309C28.6948 25.6757 28.3593 24.6337 27.6871 23.8174L25.8497 21.5861C25.2955 20.9114 24.552 20.4179 23.7151 20.1692C22.8781 19.9205 21.9858 19.9279 21.1531 20.1905L18.1168 21.1464C17.3327 20.3372 16.6456 19.4394 16.0693 18.4711C15.5131 17.4919 15.0797 16.4479 14.7787 15.3627V15.3649Z" fill="white"/>
</svg>
