<svg width="30" height="30" viewBox="0 0 30 30" fill="none" xmlns="http://www.w3.org/2000/svg">
<path d="M13.9027 6.37726C13.7178 5.87378 13.3472 5.46015 12.867 5.22121C12.3868 4.98227 11.8334 4.93613 11.3202 5.09226C8.88772 5.84226 7.18772 7.92976 7.55272 10.3448C7.96093 13.0251 8.86919 15.6049 10.2302 17.9498C11.5767 20.2892 13.3419 22.3612 15.4377 24.0623C17.3227 25.5873 19.9677 25.1673 21.8327 23.4173C22.225 23.0491 22.463 22.5458 22.4988 22.0089C22.5345 21.4721 22.3653 20.9417 22.0252 20.5248L20.6902 18.8923C20.4228 18.564 20.063 18.3236 19.6573 18.2024C19.2516 18.0811 18.8189 18.0846 18.4152 18.2123L15.3352 19.1873L14.7977 18.6323C14.1205 17.9299 13.5281 17.1504 13.0327 16.3098C12.5519 15.4597 12.1775 14.5537 11.9177 13.6123L11.7102 12.8748L14.0852 10.6873C14.3986 10.3963 14.6185 10.0187 14.7168 9.6025C14.8152 9.18631 14.7877 8.75027 14.6377 8.34976L13.9052 6.37976L13.9027 6.37726ZM10.5852 2.70226C11.7081 2.3587 12.9199 2.45758 13.9722 2.97864C15.0245 3.49969 15.8377 4.40346 16.2452 5.50476L16.9777 7.47476C17.3009 8.34025 17.3593 9.28228 17.1456 10.1811C16.9319 11.0799 16.4558 11.8948 15.7777 12.5223L14.5527 13.6498C14.7102 14.0848 14.9227 14.5823 15.1977 15.0648C15.4727 15.5398 15.7927 15.9723 16.0852 16.3248L17.6602 15.8248C18.5408 15.5468 19.4845 15.5394 20.3692 15.8037C21.2539 16.0681 22.039 16.5918 22.6227 17.3073L23.9577 18.9398C24.6996 19.847 25.0695 21.0021 24.9924 22.1716C24.9154 23.3411 24.3972 24.4377 23.5427 25.2398C21.0577 27.5723 17.0002 28.5398 13.8677 26.0048C11.5336 24.1112 9.56754 21.8045 8.06772 19.1998C6.54934 16.5844 5.53593 13.7069 5.08022 10.7173C4.48022 6.73476 7.33772 3.70226 10.5852 2.70476V2.70226Z" fill="#0E344B"/>
</svg>
