<svg width="95" height="131" viewBox="0 0 95 131" fill="none" xmlns="http://www.w3.org/2000/svg">
<g clip-path="url(#clip0_67_190)">
<path d="M72.6255 94.203C71.2248 93.4007 68.607 92.4985 66.7816 90.762C48.6638 73.5303 30.6739 56.1626 12.6533 38.8282C9.6042 35.8949 6.38862 33.1029 3.61644 29.9244C2.1904 28.2892 0.918814 26.017 0.701779 23.9153C-0.21962 15.0369 9.07293 5.36953 17.9447 6.11584C20.3721 6.31974 23.1083 7.81503 24.9258 9.5382C41.1169 24.8909 57.1335 40.4301 73.2047 55.9107C77.2685 59.8248 81.3016 63.7723 85.4199 67.6291C91.6127 73.4276 92.4423 78.977 87.6768 86.0176C84.4266 90.8206 79.7597 93.55 72.6255 94.2044V94.203Z" fill="white"/>
<path d="M94.651 0.279852C94.2023 -0.129286 93.5126 -0.0813086 93.1118 0.373141C90.6419 3.1718 86.6207 4.65909 83.1349 4.59912C71.4762 4.39788 59.8123 4.52582 48.1497 4.52582H37.969C55.4276 22.0121 72.8903 39.5024 90.2997 56.9408C90.2997 56.1758 90.2997 54.923 90.2997 53.6703C90.2983 39.9462 90.4248 26.2194 90.2171 12.4967C90.1612 8.76246 91.6765 4.53382 94.6297 1.88975C95.1104 1.45929 95.1277 0.714311 94.6497 0.279852H94.651Z" fill="white"/>
<path d="M54.5888 95.4437C54.003 95.5037 53.1495 95.6663 52.296 95.6663C36.6522 95.665 21.007 95.5477 5.36452 95.7023C1.94522 95.7356 1.00784 94.6814 1.04113 91.3324C1.19958 75.6759 1.1117 60.0167 1.12502 44.3589C1.12502 43.5113 1.25284 42.6637 1.30876 41.9653C19.079 59.8021 36.772 77.5616 54.5888 95.4451V95.4437Z" fill="white"/>
<path d="M7.55361 130.169C6.70544 130.169 5.85062 130.038 5.0171 129.773C2.55648 128.988 0.727 127.154 0 124.741L1.27425 124.356C1.87342 126.343 3.38468 127.854 5.42188 128.503C7.60554 129.199 9.97029 128.789 11.7478 127.405C13.6 125.963 14.6385 123.46 14.3909 121.029C14.1312 118.476 11.8943 116.883 9.73861 115.662C9.4297 115.486 9.09682 115.305 8.74397 115.113C5.42853 113.302 0.418092 110.566 2.21562 105.744C2.97591 103.704 4.52844 102.446 6.58428 102.204C9.04356 101.913 11.6626 103.154 13.102 105.294L11.9968 106.038C10.8477 104.329 8.68539 103.296 6.74006 103.527C5.20351 103.708 4.03978 104.661 3.46191 106.211C2.17301 109.669 5.37927 111.759 9.38043 113.945C9.73727 114.139 10.0755 114.324 10.3937 114.504C12.845 115.893 15.3948 117.739 15.7144 120.896C16.006 123.773 14.769 126.742 12.5627 128.459C11.118 129.582 9.35114 130.17 7.55095 130.17L7.55361 130.169Z" fill="white"/>
<path d="M21.1975 102.828H19.866V129.498H21.1975V102.828Z" fill="white"/>
<path d="M34.362 102.828H33.0305V129.498H34.362V102.828Z" fill="white"/>
<path d="M33.695 116.071H20.5317V117.404H33.695V116.071Z" fill="white"/>
<path d="M54.1576 131C46.2138 131 39.7507 124.531 39.7507 116.58C39.7507 108.63 46.2138 102.161 54.1576 102.161C62.1013 102.161 68.5644 108.63 68.5644 116.58C68.5644 124.531 62.1013 131 54.1576 131ZM54.1576 103.495C46.9475 103.495 41.0822 109.365 41.0822 116.582C41.0822 123.798 46.9475 129.669 54.1576 129.669C61.3677 129.669 67.2329 123.798 67.2329 116.582C67.2329 109.365 61.3677 103.495 54.1576 103.495Z" fill="white"/>
<path d="M90.1187 130.576L80.7595 106.676L71.7093 130.569L70.4644 130.098L80.7382 102.971L91.3583 130.09L90.1187 130.576Z" fill="white"/>
</g>
<defs>
<clipPath id="clip0_67_190">
<rect width="95" height="131" fill="white"/>
</clipPath>
</defs>
</svg>
