<svg width="95" height="131" viewBox="0 0 95 131" fill="none" xmlns="http://www.w3.org/2000/svg">
<g clip-path="url(#clip0_67_1004)">
<path d="M72.6255 94.203C71.2247 93.4007 68.607 92.4985 66.7815 90.762C48.6637 73.5303 30.6738 56.1626 12.6533 38.8282C9.60414 35.8949 6.38856 33.1029 3.61638 29.9244C2.19034 28.2892 0.918753 26.017 0.701718 23.9153C-0.219681 15.0369 9.07287 5.36953 17.9447 6.11584C20.372 6.31974 23.1082 7.81503 24.9257 9.5382C41.1168 24.8909 57.1334 40.4301 73.2047 55.9107C77.2684 59.8248 81.3015 63.7723 85.4199 67.6291C91.6127 73.4276 92.4422 78.977 87.6768 86.0176C84.4266 90.8206 79.7596 93.55 72.6255 94.2044V94.203Z" fill="#0E344B"/>
<path d="M94.6511 0.279852C94.2024 -0.129286 93.5127 -0.0813086 93.1119 0.373141C90.642 3.1718 86.6209 4.65909 83.135 4.59912C71.4764 4.39788 59.8124 4.52582 48.1498 4.52582H37.9691C55.4278 22.0121 72.8904 39.5024 90.2998 56.9408C90.2998 56.1758 90.2998 54.923 90.2998 53.6703C90.2985 39.9462 90.425 26.2194 90.2173 12.4967C90.1613 8.76246 91.6766 4.53382 94.6298 1.88975C95.1105 1.45929 95.1278 0.714311 94.6498 0.279852H94.6511Z" fill="#0E344B"/>
<path d="M54.5889 95.4437C54.0031 95.5037 53.1496 95.6663 52.2961 95.6663C36.6523 95.665 21.0071 95.5477 5.36464 95.7023C1.94534 95.7356 1.00797 94.6814 1.04125 91.3324C1.1997 75.6759 1.11182 60.0167 1.12514 44.3589C1.12514 43.5113 1.25296 42.6637 1.30889 41.9653C19.0791 59.8021 36.7721 77.5616 54.5889 95.4451V95.4437Z" fill="#0E344B"/>
<path d="M7.55361 130.169C6.70544 130.169 5.85062 130.038 5.0171 129.773C2.55648 128.988 0.727 127.154 0 124.741L1.27425 124.356C1.87342 126.343 3.38468 127.854 5.42188 128.503C7.60554 129.199 9.97029 128.789 11.7478 127.405C13.6 125.963 14.6385 123.46 14.3909 121.029C14.1312 118.476 11.8943 116.883 9.73861 115.662C9.4297 115.486 9.09682 115.305 8.74397 115.113C5.42853 113.302 0.418092 110.566 2.21562 105.744C2.97591 103.704 4.52844 102.446 6.58428 102.204C9.04356 101.913 11.6626 103.154 13.102 105.294L11.9968 106.038C10.8477 104.329 8.68539 103.296 6.74006 103.527C5.20351 103.708 4.03978 104.661 3.46191 106.211C2.17301 109.669 5.37927 111.759 9.38043 113.945C9.73727 114.139 10.0755 114.324 10.3937 114.504C12.845 115.893 15.3948 117.739 15.7144 120.896C16.006 123.773 14.769 126.742 12.5627 128.459C11.118 129.582 9.35114 130.17 7.55095 130.17L7.55361 130.169Z" fill="#0E344B"/>
<path d="M21.1975 102.828H19.866V129.498H21.1975V102.828Z" fill="#0E344B"/>
<path d="M34.3621 102.828H33.0306V129.498H34.3621V102.828Z" fill="#0E344B"/>
<path d="M33.695 116.071H20.5317V117.404H33.695V116.071Z" fill="#0E344B"/>
<path d="M54.1575 131C46.2138 131 39.7507 124.531 39.7507 116.58C39.7507 108.63 46.2138 102.161 54.1575 102.161C62.1013 102.161 68.5644 108.63 68.5644 116.58C68.5644 124.531 62.1013 131 54.1575 131ZM54.1575 103.495C46.9474 103.495 41.0822 109.365 41.0822 116.582C41.0822 123.798 46.9474 129.669 54.1575 129.669C61.3676 129.669 67.2329 123.798 67.2329 116.582C67.2329 109.365 61.3676 103.495 54.1575 103.495Z" fill="#0E344B"/>
<path d="M90.1187 130.576L80.7596 106.676L71.7094 130.569L70.4644 130.098L80.7383 102.971L91.3583 130.09L90.1187 130.576Z" fill="#0E344B"/>
</g>
<defs>
<clipPath id="clip0_67_1004">
<rect width="95" height="131" fill="white"/>
</clipPath>
</defs>
</svg>
